<svg width="1200" height="675" viewBox="0 0 1200 675" fill="none" xmlns="http://www.w3.org/2000/svg">
  <defs>
    <linearGradient id="bg" x1="0" y1="0" x2="0" y2="1">
      <stop offset="0%" stop-color="#0f172a" />
      <stop offset="100%" stop-color="#0b1223" />
    </linearGradient>
    <linearGradient id="card" x1="0" y1="0" x2="1" y2="1">
      <stop offset="0%" stop-color="#10b981" stop-opacity="0.18" />
      <stop offset="100%" stop-color="#34d399" stop-opacity="0.12" />
    </linearGradient>
    <filter id="shadow" x="-10" y="-10" width="200" height="200">
      <feDropShadow dx="0" dy="12" stdDeviation="24" flood-color="#000" flood-opacity="0.15" />
    </filter>
  </defs>
  <rect width="1200" height="675" fill="url(#bg)"/>
  <rect x="60" y="60" width="1080" height="555" rx="28" fill="#0b1c3a" stroke="#193256" stroke-width="3"/>
  <rect x="100" y="110" width="1020" height="250" rx="20" fill="#0f213f" stroke="#1e3a5f"/>
  <rect x="100" y="390" width="1020" height="180" rx="20" fill="#0f213f" stroke="#1e3a5f"/>
  <rect x="120" y="130" width="220" height="200" rx="20" fill="url(#card)" stroke="#23c08f" stroke-width="2"/>
  <rect x="360" y="130" width="220" height="200" rx="20" fill="url(#card)" stroke="#23c08f" stroke-width="2"/>
  <rect x="600" y="130" width="220" height="200" rx="20" fill="url(#card)" stroke="#23c08f" stroke-width="2"/>
  <rect x="840" y="130" width="220" height="200" rx="20" fill="url(#card)" stroke="#23c08f" stroke-width="2"/>
  <text x="140" y="170" fill="#e2e8f0" font-family="'Inter', 'Segoe UI', sans-serif" font-weight="700" font-size="22">Briefing Tim Pajak</text>
  <text x="380" y="170" fill="#e2e8f0" font-family="'Inter', 'Segoe UI', sans-serif" font-weight="700" font-size="22">Koreksi Laporan</text>
  <text x="620" y="170" fill="#e2e8f0" font-family="'Inter', 'Segoe UI', sans-serif" font-weight="700" font-size="22">Review Bukti Potong</text>
  <text x="860" y="170" fill="#e2e8f0" font-family="'Inter', 'Segoe UI', sans-serif" font-weight="700" font-size="22">Pemetaan Risiko</text>
  <text x="140" y="205" fill="#cbd5e1" font-family="'Inter', 'Segoe UI', sans-serif" font-size="16">Diskusi progres pekerjaan</text>
  <text x="140" y="232" fill="#cbd5e1" font-family="'Inter', 'Segoe UI', sans-serif" font-size="16">dan perbaikan dokumen.</text>
  <text x="380" y="205" fill="#cbd5e1" font-family="'Inter', 'Segoe UI', sans-serif" font-size="16">Validasi angka PPN &amp; PPh</text>
  <text x="380" y="232" fill="#cbd5e1" font-family="'Inter', 'Segoe UI', sans-serif" font-size="16">dengan ringkasan temuan.</text>
  <text x="620" y="205" fill="#cbd5e1" font-family="'Inter', 'Segoe UI', sans-serif" font-size="16">Pencocokan bukti potong dan</text>
  <text x="620" y="232" fill="#cbd5e1" font-family="'Inter', 'Segoe UI', sans-serif" font-size="16">SPT masa terupdate.</text>
  <text x="860" y="205" fill="#cbd5e1" font-family="'Inter', 'Segoe UI', sans-serif" font-size="16">Dashboard risiko kepatuhan</text>
  <text x="860" y="232" fill="#cbd5e1" font-family="'Inter', 'Segoe UI', sans-serif" font-size="16">dengan rekomendasi aksi.</text>
  <circle cx="220" cy="292" r="16" fill="#10b981" />
  <circle cx="460" cy="292" r="16" fill="#10b981" />
  <circle cx="700" cy="292" r="16" fill="#10b981" />
  <circle cx="940" cy="292" r="16" fill="#10b981" />
  <rect x="150" y="420" width="900" height="120" rx="18" fill="#0a1a32" stroke="#1e3a5f"/>
  <text x="180" y="460" fill="#e2e8f0" font-family="'Inter', 'Segoe UI', sans-serif" font-weight="700" font-size="22">Progress Pajak Kita</text>
  <text x="180" y="490" fill="#cbd5e1" font-family="'Inter', 'Segoe UI', sans-serif" font-size="16">1. Upload dokumen | 2. Review konsultan | 3. Laporan siap | 4. Arsip digital aman</text>
  <rect x="170" y="515" width="120" height="12" rx="6" fill="#0f2c4f" />
  <rect x="170" y="515" width="260" height="12" rx="6" fill="#22c55e" />
  <rect x="440" y="515" width="120" height="12" rx="6" fill="#0f2c4f" />
  <rect x="440" y="515" width="260" height="12" rx="6" fill="#22c55e" />
  <rect x="710" y="515" width="120" height="12" rx="6" fill="#0f2c4f" />
  <rect x="710" y="515" width="260" height="12" rx="6" fill="#22c55e" />
  <circle cx="1060" cy="190" r="10" fill="#22c55e" filter="url(#shadow)"/>
  <text x="1080" y="196" fill="#22c55e" font-family="'Inter', 'Segoe UI', sans-serif" font-weight="700" font-size="16">Live</text>
</svg>
